{
	"asset":{
		"generator":"Khronos glTF Blender I/O v4.5.48",
		"version":"2.0"
	},
	"scene":0,
	"scenes":[
		{
			"extras":{
				"uuid":"270c5cfa-8314-4fad-8ba0-d78e2b0a128a",
				"assets reported":{}
			},
			"name":"Scene",
			"nodes":[
				3
			]
		}
	],
	"nodes":[
		{
			"mesh":0,
			"name":"BSC_Bedding",
			"translation":[
				0.15174347162246704,
				-0.19155290722846985,
				0.006348252296447754
			]
		},
		{
			"mesh":1,
			"name":"BSC_Pillow_1",
			"translation":[
				-0.7401843070983887,
				-0.030564576387405396,
				0.006348669528961182
			]
		},
		{
			"mesh":2,
			"name":"BSC_Pillow_2",
			"translation":[
				-0.5608042478561401,
				-0.01831725239753723,
				-0.09083151817321777
			]
		},
		{
			"children":[
				0,
				1,
				2
			],
			"mesh":3,
			"name":"BSC_Low_poly_simple_bed_Base",
			"translation":[
				0,
				0.4661604166030884,
				0
			]
		}
	],
	"materials":[
		{
			"doubleSided":true,
			"name":"Material_bed_3",
			"pbrMetallicRoughness":{
				"baseColorFactor":[
					0.5333659648895264,
					0.49099916219711304,
					0.7990451455116272,
					1
				],
				"metallicFactor":0,
				"roughnessFactor":0.5
			}
		},
		{
			"doubleSided":true,
			"name":"Material_bed_2",
			"pbrMetallicRoughness":{
				"baseColorFactor":[
					0.407308429479599,
					0.4341346025466919,
					0.7990451455116272,
					1
				],
				"metallicFactor":0,
				"roughnessFactor":0.5
			}
		},
		{
			"doubleSided":true,
			"name":"Material_bed_1",
			"pbrMetallicRoughness":{
				"baseColorFactor":[
					0.5371289253234863,
					0.4693647623062134,
					0.8014600872993469,
					1
				],
				"metallicFactor":0,
				"roughnessFactor":0.5
			}
		},
		{
			"doubleSided":true,
			"name":"Material_wood",
			"pbrMetallicRoughness":{
				"baseColorFactor":[
					0.23459020256996155,
					0.11192751675844193,
					0.05447636544704437,
					1
				],
				"metallicFactor":0,
				"roughnessFactor":0.4000000059604645
			}
		}
	],
	"meshes":[
		{
			"name":"Plane.006",
			"primitives":[
				{
					"attributes":{
						"POSITION":0,
						"NORMAL":1,
						"TEXCOORD_0":2,
						"TANGENT":3
					},
					"indices":4,
					"material":0
				},
				{
					"attributes":{
						"POSITION":5,
						"NORMAL":6,
						"TEXCOORD_0":7,
						"TANGENT":8
					},
					"indices":9,
					"material":1
				},
				{
					"attributes":{
						"POSITION":10,
						"NORMAL":11,
						"TEXCOORD_0":12,
						"TANGENT":13
					},
					"indices":14,
					"material":2
				}
			]
		},
		{
			"name":"Plane.013",
			"primitives":[
				{
					"attributes":{
						"POSITION":15,
						"NORMAL":16,
						"TEXCOORD_0":17,
						"TANGENT":18
					},
					"indices":19,
					"material":1
				}
			]
		},
		{
			"name":"Plane.007",
			"primitives":[
				{
					"attributes":{
						"POSITION":20,
						"NORMAL":21,
						"TEXCOORD_0":22,
						"TANGENT":23
					},
					"indices":19,
					"material":2
				}
			]
		},
		{
			"name":"Plane.002",
			"primitives":[
				{
					"attributes":{
						"POSITION":24,
						"NORMAL":25,
						"TEXCOORD_0":26
					},
					"indices":27,
					"material":3
				}
			]
		}
	],
	"accessors":[
		{
			"bufferView":0,
			"componentType":5126,
			"count":335,
			"max":[
				0.6681163907051086,
				0.04720631614327431,
				0.40184587240219116
			],
			"min":[
				-0.9591421484947205,
				-0.08534733951091766,
				-0.4018450081348419
			],
			"type":"VEC3"
		},
		{
			"bufferView":1,
			"componentType":5126,
			"count":335,
			"type":"VEC3"
		},
		{
			"bufferView":2,
			"componentType":5126,
			"count":335,
			"type":"VEC2"
		},
		{
			"bufferView":3,
			"componentType":5126,
			"count":335,
			"type":"VEC4"
		},
		{
			"bufferView":4,
			"componentType":5123,
			"count":1464,
			"type":"SCALAR"
		},
		{
			"bufferView":5,
			"componentType":5126,
			"count":341,
			"max":[
				-0.18687312304973602,
				0.15705762803554535,
				0.45660993456840515
			],
			"min":[
				-0.5607808828353882,
				-0.1215289980173111,
				-0.45660915970802307
			],
			"type":"VEC3"
		},
		{
			"bufferView":6,
			"componentType":5126,
			"count":341,
			"type":"VEC3"
		},
		{
			"bufferView":7,
			"componentType":5126,
			"count":341,
			"type":"VEC2"
		},
		{
			"bufferView":8,
			"componentType":5126,
			"count":341,
			"type":"VEC4"
		},
		{
			"bufferView":9,
			"componentType":5123,
			"count":1512,
			"type":"SCALAR"
		},
		{
			"bufferView":10,
			"componentType":5126,
			"count":1196,
			"max":[
				0.7099567651748657,
				0.11515186727046967,
				0.414667010307312
			],
			"min":[
				-0.45993322134017944,
				-0.09934386610984802,
				-0.4146661162376404
			],
			"type":"VEC3"
		},
		{
			"bufferView":11,
			"componentType":5126,
			"count":1196,
			"type":"VEC3"
		},
		{
			"bufferView":12,
			"componentType":5126,
			"count":1196,
			"type":"VEC2"
		},
		{
			"bufferView":13,
			"componentType":5126,
			"count":1196,
			"type":"VEC4"
		},
		{
			"bufferView":14,
			"componentType":5123,
			"count":6006,
			"type":"SCALAR"
		},
		{
			"bufferView":15,
			"componentType":5126,
			"count":1346,
			"max":[
				0.1321336030960083,
				0.15105415880680084,
				0.24587894976139069
			],
			"min":[
				-0.1321336030960083,
				-0.15105418860912323,
				-0.24587894976139069
			],
			"type":"VEC3"
		},
		{
			"bufferView":16,
			"componentType":5126,
			"count":1346,
			"type":"VEC3"
		},
		{
			"bufferView":17,
			"componentType":5126,
			"count":1346,
			"type":"VEC2"
		},
		{
			"bufferView":18,
			"componentType":5126,
			"count":1346,
			"type":"VEC4"
		},
		{
			"bufferView":19,
			"componentType":5123,
			"count":7680,
			"type":"SCALAR"
		},
		{
			"bufferView":20,
			"componentType":5126,
			"count":1346,
			"max":[
				0.1143222376704216,
				0.14164452254772186,
				0.16203449666500092
			],
			"min":[
				-0.114322230219841,
				-0.14164452254772186,
				-0.16203449666500092
			],
			"type":"VEC3"
		},
		{
			"bufferView":21,
			"componentType":5126,
			"count":1346,
			"type":"VEC3"
		},
		{
			"bufferView":22,
			"componentType":5126,
			"count":1346,
			"type":"VEC2"
		},
		{
			"bufferView":23,
			"componentType":5126,
			"count":1346,
			"type":"VEC4"
		},
		{
			"bufferView":24,
			"componentType":5126,
			"count":3889,
			"max":[
				0.9999986886978149,
				0.33383962512016296,
				0.5063486099243164
			],
			"min":[
				-1.000001311302185,
				-0.4661604166030884,
				-0.4936513602733612
			],
			"type":"VEC3"
		},
		{
			"bufferView":25,
			"componentType":5126,
			"count":3889,
			"type":"VEC3"
		},
		{
			"bufferView":26,
			"componentType":5126,
			"count":3889,
			"type":"VEC2"
		},
		{
			"bufferView":27,
			"componentType":5123,
			"count":16860,
			"type":"SCALAR"
		}
	],
	"bufferViews":[
		{
			"buffer":0,
			"byteLength":4020,
			"byteOffset":0,
			"target":34962
		},
		{
			"buffer":0,
			"byteLength":4020,
			"byteOffset":4020,
			"target":34962
		},
		{
			"buffer":0,
			"byteLength":2680,
			"byteOffset":8040,
			"target":34962
		},
		{
			"buffer":0,
			"byteLength":5360,
			"byteOffset":10720,
			"target":34962
		},
		{
			"buffer":0,
			"byteLength":2928,
			"byteOffset":16080,
			"target":34963
		},
		{
			"buffer":0,
			"byteLength":4092,
			"byteOffset":19008,
			"target":34962
		},
		{
			"buffer":0,
			"byteLength":4092,
			"byteOffset":23100,
			"target":34962
		},
		{
			"buffer":0,
			"byteLength":2728,
			"byteOffset":27192,
			"target":34962
		},
		{
			"buffer":0,
			"byteLength":5456,
			"byteOffset":29920,
			"target":34962
		},
		{
			"buffer":0,
			"byteLength":3024,
			"byteOffset":35376,
			"target":34963
		},
		{
			"buffer":0,
			"byteLength":14352,
			"byteOffset":38400,
			"target":34962
		},
		{
			"buffer":0,
			"byteLength":14352,
			"byteOffset":52752,
			"target":34962
		},
		{
			"buffer":0,
			"byteLength":9568,
			"byteOffset":67104,
			"target":34962
		},
		{
			"buffer":0,
			"byteLength":19136,
			"byteOffset":76672,
			"target":34962
		},
		{
			"buffer":0,
			"byteLength":12012,
			"byteOffset":95808,
			"target":34963
		},
		{
			"buffer":0,
			"byteLength":16152,
			"byteOffset":107820,
			"target":34962
		},
		{
			"buffer":0,
			"byteLength":16152,
			"byteOffset":123972,
			"target":34962
		},
		{
			"buffer":0,
			"byteLength":10768,
			"byteOffset":140124,
			"target":34962
		},
		{
			"buffer":0,
			"byteLength":21536,
			"byteOffset":150892,
			"target":34962
		},
		{
			"buffer":0,
			"byteLength":15360,
			"byteOffset":172428,
			"target":34963
		},
		{
			"buffer":0,
			"byteLength":16152,
			"byteOffset":187788,
			"target":34962
		},
		{
			"buffer":0,
			"byteLength":16152,
			"byteOffset":203940,
			"target":34962
		},
		{
			"buffer":0,
			"byteLength":10768,
			"byteOffset":220092,
			"target":34962
		},
		{
			"buffer":0,
			"byteLength":21536,
			"byteOffset":230860,
			"target":34962
		},
		{
			"buffer":0,
			"byteLength":46668,
			"byteOffset":252396,
			"target":34962
		},
		{
			"buffer":0,
			"byteLength":46668,
			"byteOffset":299064,
			"target":34962
		},
		{
			"buffer":0,
			"byteLength":31112,
			"byteOffset":345732,
			"target":34962
		},
		{
			"buffer":0,
			"byteLength":33720,
			"byteOffset":376844,
			"target":34963
		}
	],
	"buffers":[
		{
			"byteLength":410564,
			"uri":"low-poly-single-bed-84969b04c38a155590c403b5dd22228f.bin"
		}
	]
}
