{
	"asset":{
		"generator":"Khronos glTF Blender I/O v4.5.48",
		"version":"2.0"
	},
	"scene":0,
	"scenes":[
		{
			"extras":{
				"paper_model":{},
				"dynamic_sky_name":"Dynamic_1",
				"ats_settings":{
					"num_tiles":[
						60,
						34
					],
					"threads_error":0,
					"prev_engine":"CYCLES",
					"prev_device":"CPU",
					"prev_border":0,
					"prev_threads":12,
					"prev_choice":"32",
					"prev_res":[
						1920,
						1080
					],
					"prev_border_res":[
						0.0,
						0.0,
						1.0,
						1.0
					],
					"prev_actual_tile_size":[
						32,
						32
					],
					"first_run":0
				}
			},
			"name":"Scene",
			"nodes":[
				0,
				1,
				2,
				3,
				4,
				5,
				6,
				7,
				8,
				9,
				10,
				11,
				12
			]
		}
	],
	"nodes":[
		{
			"mesh":0,
			"name":"radiator",
			"translation":[
				0,
				3.480513334274292,
				3.0009331703186035
			]
		},
		{
			"mesh":1,
			"name":"valve.007",
			"rotation":[
				0.7071068286895752,
				0,
				0,
				0.7071068286895752
			],
			"scale":[
				1.158707857131958,
				1.158707857131958,
				1.158707857131958
			],
			"translation":[
				0,
				6.488374710083008,
				3.3399345874786377
			]
		},
		{
			"mesh":2,
			"name":"tube.002",
			"rotation":[
				0.7071068286895752,
				0,
				0,
				0.7071067690849304
			],
			"scale":[
				1.533744215965271,
				1.533744215965271,
				1.533744215965271
			],
			"translation":[
				-0.004064854234457016,
				6.485532283782959,
				3.328331232070923
			]
		},
		{
			"mesh":3,
			"name":"tube.001",
			"rotation":[
				0.5,
				0.5,
				-0.5,
				0.4999999701976776
			],
			"scale":[
				1.533744215965271,
				1.533744215965271,
				1.533744215965271
			],
			"translation":[
				-0.5106286406517029,
				6.485532283782959,
				3.4458539485931396
			]
		},
		{
			"mesh":4,
			"name":"valve",
			"translation":[
				0,
				3.980513334274292,
				3.0009331703186035
			]
		},
		{
			"mesh":5,
			"name":"valve.006",
			"rotation":[
				0.7071068286895752,
				0,
				0,
				0.7071068286895752
			],
			"scale":[
				1.158707857131958,
				1.158707857131958,
				1.158707857131958
			],
			"translation":[
				0,
				0.48838305473327637,
				3.3399345874786377
			]
		},
		{
			"mesh":6,
			"name":"valve.001",
			"translation":[
				0,
				0.48702001571655273,
				3.328347682952881
			]
		},
		{
			"mesh":7,
			"name":"valve.005",
			"rotation":[
				-0.7071068286895752,
				0,
				0,
				0.7071068286895752
			],
			"scale":[
				1.158707857131958,
				1.158707857131958,
				1.158707857131958
			],
			"translation":[
				0,
				0.48702025413513184,
				-3.3251819610595703
			]
		},
		{
			"mesh":8,
			"name":"valve.002",
			"rotation":[
				1,
				0,
				0,
				1.6292068494294654e-07
			],
			"translation":[
				0,
				0.48838329315185547,
				-3.3135948181152344
			]
		},
		{
			"mesh":9,
			"name":"valve.004",
			"rotation":[
				-0.7071068286895752,
				0,
				0,
				0.7071068286895752
			],
			"scale":[
				1.158707857131958,
				1.158707857131958,
				1.158707857131958
			],
			"translation":[
				0,
				6.486197471618652,
				-3.2939887046813965
			]
		},
		{
			"mesh":10,
			"name":"valve.003",
			"rotation":[
				1,
				0,
				0,
				1.6292068494294654e-07
			],
			"translation":[
				0,
				6.487560272216797,
				-3.2824015617370605
			]
		},
		{
			"mesh":11,
			"name":"tube",
			"rotation":[
				0.7071068286895752,
				0,
				0,
				0.7071068286895752
			],
			"scale":[
				2.64713191986084,
				2.64713191986084,
				2.64713191986084
			],
			"translation":[
				0.00031753271468915045,
				0.48772692680358887,
				3.308969020843506
			]
		},
		{
			"mesh":12,
			"name":"knob",
			"rotation":[
				0.7071068286895752,
				0,
				0,
				0.7071068286895752
			],
			"scale":[
				0.20233868062496185,
				0.20233868062496185,
				0.20233868062496185
			],
			"translation":[
				-0.0020570571068674326,
				6.4854841232299805,
				3.5469937324523926
			]
		}
	],
	"materials":[
		{
			"doubleSided":true,
			"name":"vernice",
			"pbrMetallicRoughness":{
				"baseColorFactor":[
					0.5445997714996338,
					0.5445997714996338,
					0.5445997714996338,
					1
				],
				"metallicFactor":0
			}
		},
		{
			"doubleSided":true,
			"name":"ferro2",
			"pbrMetallicRoughness":{
				"baseColorFactor":[
					0.446228563785553,
					0.3657984435558319,
					0.31740814447402954,
					1
				],
				"roughnessFactor":0.5
			}
		},
		{
			"doubleSided":true,
			"name":"Material.001",
			"pbrMetallicRoughness":{
				"baseColorFactor":[
					0.800000011920929,
					0.800000011920929,
					0.800000011920929,
					1
				],
				"metallicFactor":0,
				"roughnessFactor":0.5
			}
		},
		{
			"doubleSided":true,
			"name":"ferro",
			"pbrMetallicRoughness":{
				"baseColorFactor":[
					0.800000011920929,
					0.800000011920929,
					0.800000011920929,
					1
				],
				"roughnessFactor":0.06363636255264282
			}
		},
		{
			"doubleSided":true,
			"name":"plastica",
			"pbrMetallicRoughness":{
				"baseColorFactor":[
					0.7483818531036377,
					0.7321872115135193,
					0.5101982355117798,
					1
				],
				"metallicFactor":0,
				"roughnessFactor":0.5
			}
		}
	],
	"meshes":[
		{
			"name":"Plane",
			"primitives":[
				{
					"attributes":{
						"POSITION":0,
						"NORMAL":1,
						"TEXCOORD_0":2,
						"TANGENT":3
					},
					"indices":4,
					"material":0
				}
			]
		},
		{
			"name":"Circle",
			"primitives":[
				{
					"attributes":{
						"POSITION":5,
						"NORMAL":6,
						"TEXCOORD_0":7,
						"TANGENT":8
					},
					"indices":9,
					"material":1
				}
			]
		},
		{
			"name":"Mesh",
			"primitives":[
				{
					"attributes":{
						"POSITION":10,
						"NORMAL":11,
						"TEXCOORD_0":12,
						"TANGENT":13
					},
					"indices":14,
					"material":2
				},
				{
					"attributes":{
						"POSITION":15,
						"NORMAL":16,
						"TEXCOORD_0":17,
						"TANGENT":18
					},
					"indices":19,
					"material":3
				}
			]
		},
		{
			"name":"Mesh",
			"primitives":[
				{
					"attributes":{
						"POSITION":20,
						"NORMAL":21,
						"TEXCOORD_0":22,
						"TANGENT":23
					},
					"indices":24,
					"material":3
				}
			]
		},
		{
			"name":"Mesh",
			"primitives":[
				{
					"attributes":{
						"POSITION":25,
						"NORMAL":26,
						"TEXCOORD_0":27,
						"TANGENT":28
					},
					"indices":29,
					"material":1
				}
			]
		},
		{
			"name":"Circle.003",
			"primitives":[
				{
					"attributes":{
						"POSITION":30,
						"NORMAL":31,
						"TEXCOORD_0":32,
						"TANGENT":33
					},
					"indices":9,
					"material":1
				}
			]
		},
		{
			"name":"Mesh",
			"primitives":[
				{
					"attributes":{
						"POSITION":34,
						"NORMAL":35,
						"TEXCOORD_0":36,
						"TANGENT":37
					},
					"indices":29,
					"material":1
				}
			]
		},
		{
			"name":"Circle.004",
			"primitives":[
				{
					"attributes":{
						"POSITION":38,
						"NORMAL":39,
						"TEXCOORD_0":40,
						"TANGENT":41
					},
					"indices":9
				}
			]
		},
		{
			"name":"Mesh",
			"primitives":[
				{
					"attributes":{
						"POSITION":42,
						"NORMAL":43,
						"TEXCOORD_0":44,
						"TANGENT":45
					},
					"indices":46,
					"material":3
				}
			]
		},
		{
			"name":"Circle.005",
			"primitives":[
				{
					"attributes":{
						"POSITION":47,
						"NORMAL":48,
						"TEXCOORD_0":49,
						"TANGENT":50
					},
					"indices":51,
					"material":1
				},
				{
					"attributes":{
						"POSITION":52,
						"NORMAL":53,
						"TEXCOORD_0":54,
						"TANGENT":55
					},
					"indices":56,
					"material":4
				}
			]
		},
		{
			"name":"Mesh",
			"primitives":[
				{
					"attributes":{
						"POSITION":57,
						"NORMAL":58,
						"TEXCOORD_0":59,
						"TANGENT":60
					},
					"indices":46,
					"material":1
				}
			]
		},
		{
			"name":"Mesh",
			"primitives":[
				{
					"attributes":{
						"POSITION":61,
						"NORMAL":62,
						"TEXCOORD_0":63,
						"TANGENT":64
					},
					"indices":65,
					"material":3
				}
			]
		},
		{
			"name":"Mesh",
			"primitives":[
				{
					"attributes":{
						"POSITION":66,
						"NORMAL":67,
						"TEXCOORD_0":68,
						"TANGENT":69
					},
					"indices":70,
					"material":4
				}
			]
		}
	],
	"accessors":[
		{
			"bufferView":0,
			"componentType":5126,
			"count":452952,
			"max":[
				0.9685971736907959,
				3.5203962326049805,
				0.2715785503387451
			],
			"min":[
				-0.9685971736907959,
				-3.463209390640259,
				-6.246306419372559
			],
			"type":"VEC3"
		},
		{
			"bufferView":1,
			"componentType":5126,
			"count":452952,
			"type":"VEC3"
		},
		{
			"bufferView":2,
			"componentType":5126,
			"count":452952,
			"type":"VEC2"
		},
		{
			"bufferView":3,
			"componentType":5126,
			"count":452952,
			"type":"VEC4"
		},
		{
			"bufferView":4,
			"componentType":5125,
			"count":2709504,
			"type":"SCALAR"
		},
		{
			"bufferView":5,
			"componentType":5126,
			"count":21,
			"max":[
				0.10461615771055222,
				0,
				0.10999993979930878
			],
			"min":[
				-0.10461616516113281,
				0,
				-0.10999993979930878
			],
			"type":"VEC3"
		},
		{
			"bufferView":6,
			"componentType":5126,
			"count":21,
			"type":"VEC3"
		},
		{
			"bufferView":7,
			"componentType":5126,
			"count":21,
			"type":"VEC2"
		},
		{
			"bufferView":8,
			"componentType":5126,
			"count":21,
			"type":"VEC4"
		},
		{
			"bufferView":9,
			"componentType":5123,
			"count":90,
			"type":"SCALAR"
		},
		{
			"bufferView":10,
			"componentType":5126,
			"count":264,
			"max":[
				0.10890435427427292,
				0.19232961535453796,
				0.10890418291091919
			],
			"min":[
				-0.10890433937311172,
				0.1306166797876358,
				-0.10890451073646545
			],
			"type":"VEC3"
		},
		{
			"bufferView":11,
			"componentType":5126,
			"count":264,
			"type":"VEC3"
		},
		{
			"bufferView":12,
			"componentType":5126,
			"count":264,
			"type":"VEC2"
		},
		{
			"bufferView":13,
			"componentType":5126,
			"count":264,
			"type":"VEC4"
		},
		{
			"bufferView":14,
			"componentType":5123,
			"count":1440,
			"type":"SCALAR"
		},
		{
			"bufferView":15,
			"componentType":5126,
			"count":120,
			"max":[
				0.04844704642891884,
				0.130616694688797,
				0.04844704642891884
			],
			"min":[
				-0.04844704642891884,
				0,
				-0.048447053879499435
			],
			"type":"VEC3"
		},
		{
			"bufferView":16,
			"componentType":5126,
			"count":120,
			"type":"VEC3"
		},
		{
			"bufferView":17,
			"componentType":5126,
			"count":120,
			"type":"VEC2"
		},
		{
			"bufferView":18,
			"componentType":5126,
			"count":120,
			"type":"VEC4"
		},
		{
			"bufferView":19,
			"componentType":5123,
			"count":576,
			"type":"SCALAR"
		},
		{
			"bufferView":20,
			"componentType":5126,
			"count":72,
			"max":[
				0.04776708781719208,
				0.3302792012691498,
				0.04776708781719208
			],
			"min":[
				-0.0477670356631279,
				-1.0022296905517578,
				-0.04776705801486969
			],
			"type":"VEC3"
		},
		{
			"bufferView":21,
			"componentType":5126,
			"count":72,
			"type":"VEC3"
		},
		{
			"bufferView":22,
			"componentType":5126,
			"count":72,
			"type":"VEC2"
		},
		{
			"bufferView":23,
			"componentType":5126,
			"count":72,
			"type":"VEC4"
		},
		{
			"bufferView":24,
			"componentType":5123,
			"count":288,
			"type":"SCALAR"
		},
		{
			"bufferView":25,
			"componentType":5126,
			"count":5040,
			"max":[
				0.19353696703910828,
				2.700960874557495,
				0.3630262017250061
			],
			"min":[
				-0.19353696703910828,
				2.3120384216308594,
				0.2641911506652832
			],
			"type":"VEC3"
		},
		{
			"bufferView":26,
			"componentType":5126,
			"count":5040,
			"type":"VEC3"
		},
		{
			"bufferView":27,
			"componentType":5126,
			"count":5040,
			"type":"VEC2"
		},
		{
			"bufferView":28,
			"componentType":5126,
			"count":5040,
			"type":"VEC4"
		},
		{
			"bufferView":29,
			"componentType":5123,
			"count":29760,
			"type":"SCALAR"
		},
		{
			"bufferView":30,
			"componentType":5126,
			"count":21,
			"max":[
				0.10461615771055222,
				0,
				0.10999993979930878
			],
			"min":[
				-0.10461616516113281,
				0,
				-0.10999993979930878
			],
			"type":"VEC3"
		},
		{
			"bufferView":31,
			"componentType":5126,
			"count":21,
			"type":"VEC3"
		},
		{
			"bufferView":32,
			"componentType":5126,
			"count":21,
			"type":"VEC2"
		},
		{
			"bufferView":33,
			"componentType":5126,
			"count":21,
			"type":"VEC4"
		},
		{
			"bufferView":34,
			"componentType":5126,
			"count":5040,
			"max":[
				0.19353696703910828,
				0.194461852312088,
				0.03561164066195488
			],
			"min":[
				-0.19353696703910828,
				-0.19446028769016266,
				-0.06322339922189713
			],
			"type":"VEC3"
		},
		{
			"bufferView":35,
			"componentType":5126,
			"count":5040,
			"type":"VEC3"
		},
		{
			"bufferView":36,
			"componentType":5126,
			"count":5040,
			"type":"VEC2"
		},
		{
			"bufferView":37,
			"componentType":5126,
			"count":5040,
			"type":"VEC4"
		},
		{
			"bufferView":38,
			"componentType":5126,
			"count":21,
			"max":[
				0.10461615771055222,
				-0.013826826587319374,
				0.10999993979930878
			],
			"min":[
				-0.10461616516113281,
				-0.013826826587319374,
				-0.10999993979930878
			],
			"type":"VEC3"
		},
		{
			"bufferView":39,
			"componentType":5126,
			"count":21,
			"type":"VEC3"
		},
		{
			"bufferView":40,
			"componentType":5126,
			"count":21,
			"type":"VEC2"
		},
		{
			"bufferView":41,
			"componentType":5126,
			"count":21,
			"type":"VEC4"
		},
		{
			"bufferView":42,
			"componentType":5126,
			"count":5200,
			"max":[
				0.19353698194026947,
				0.1944618821144104,
				0.019590385258197784
			],
			"min":[
				-0.19353698194026947,
				-0.19446025788784027,
				-0.09619177877902985
			],
			"type":"VEC3"
		},
		{
			"bufferView":43,
			"componentType":5126,
			"count":5200,
			"type":"VEC3"
		},
		{
			"bufferView":44,
			"componentType":5126,
			"count":5200,
			"type":"VEC2"
		},
		{
			"bufferView":45,
			"componentType":5126,
			"count":5200,
			"type":"VEC4"
		},
		{
			"bufferView":46,
			"componentType":5123,
			"count":30720,
			"type":"SCALAR"
		},
		{
			"bufferView":47,
			"componentType":5126,
			"count":80,
			"max":[
				0.10461615771055222,
				0.012091808021068573,
				0.10999993979930878
			],
			"min":[
				-0.10461616516113281,
				-0.013826826587319374,
				-0.10999993979930878
			],
			"type":"VEC3"
		},
		{
			"bufferView":48,
			"componentType":5126,
			"count":80,
			"type":"VEC3"
		},
		{
			"bufferView":49,
			"componentType":5126,
			"count":80,
			"type":"VEC2"
		},
		{
			"bufferView":50,
			"componentType":5126,
			"count":80,
			"type":"VEC4"
		},
		{
			"bufferView":51,
			"componentType":5123,
			"count":120,
			"type":"SCALAR"
		},
		{
			"bufferView":52,
			"componentType":5126,
			"count":101,
			"max":[
				0.028577079996466637,
				0.061277493834495544,
				0.030047718435525894
			],
			"min":[
				-0.028577081859111786,
				0.011814750730991364,
				-0.030047720298171043
			],
			"type":"VEC3"
		},
		{
			"bufferView":53,
			"componentType":5126,
			"count":101,
			"type":"VEC3"
		},
		{
			"bufferView":54,
			"componentType":5126,
			"count":101,
			"type":"VEC2"
		},
		{
			"bufferView":55,
			"componentType":5126,
			"count":101,
			"type":"VEC4"
		},
		{
			"bufferView":56,
			"componentType":5123,
			"count":210,
			"type":"SCALAR"
		},
		{
			"bufferView":57,
			"componentType":5126,
			"count":5200,
			"max":[
				0.19353698194026947,
				0.1944618821144104,
				0.008122449740767479
			],
			"min":[
				-0.19353698194026947,
				-0.19446025788784027,
				-0.09619177877902985
			],
			"type":"VEC3"
		},
		{
			"bufferView":58,
			"componentType":5126,
			"count":5200,
			"type":"VEC3"
		},
		{
			"bufferView":59,
			"componentType":5126,
			"count":5200,
			"type":"VEC2"
		},
		{
			"bufferView":60,
			"componentType":5126,
			"count":5200,
			"type":"VEC4"
		},
		{
			"bufferView":61,
			"componentType":5126,
			"count":312,
			"max":[
				0.0338420607149601,
				0.17637573182582855,
				0.0338420644402504
			],
			"min":[
				-0.5488650798797607,
				0.006055266130715609,
				-0.03384208679199219
			],
			"type":"VEC3"
		},
		{
			"bufferView":62,
			"componentType":5126,
			"count":312,
			"type":"VEC3"
		},
		{
			"bufferView":63,
			"componentType":5126,
			"count":312,
			"type":"VEC2"
		},
		{
			"bufferView":64,
			"componentType":5126,
			"count":312,
			"type":"VEC4"
		},
		{
			"bufferView":65,
			"componentType":5123,
			"count":1728,
			"type":"SCALAR"
		},
		{
			"bufferView":66,
			"componentType":5126,
			"count":61419,
			"max":[
				1.013960599899292,
				2.6090526580810547,
				1.013960599899292
			],
			"min":[
				-1.013960599899292,
				-3.576278913897113e-06,
				-1.013960599899292
			],
			"type":"VEC3"
		},
		{
			"bufferView":67,
			"componentType":5126,
			"count":61419,
			"type":"VEC3"
		},
		{
			"bufferView":68,
			"componentType":5126,
			"count":61419,
			"type":"VEC2"
		},
		{
			"bufferView":69,
			"componentType":5126,
			"count":61419,
			"type":"VEC4"
		},
		{
			"bufferView":70,
			"componentType":5123,
			"count":214272,
			"type":"SCALAR"
		}
	],
	"bufferViews":[
		{
			"buffer":0,
			"byteLength":5435424,
			"byteOffset":0,
			"target":34962
		},
		{
			"buffer":0,
			"byteLength":5435424,
			"byteOffset":5435424,
			"target":34962
		},
		{
			"buffer":0,
			"byteLength":3623616,
			"byteOffset":10870848,
			"target":34962
		},
		{
			"buffer":0,
			"byteLength":7247232,
			"byteOffset":14494464,
			"target":34962
		},
		{
			"buffer":0,
			"byteLength":10838016,
			"byteOffset":21741696,
			"target":34963
		},
		{
			"buffer":0,
			"byteLength":252,
			"byteOffset":32579712,
			"target":34962
		},
		{
			"buffer":0,
			"byteLength":252,
			"byteOffset":32579964,
			"target":34962
		},
		{
			"buffer":0,
			"byteLength":168,
			"byteOffset":32580216,
			"target":34962
		},
		{
			"buffer":0,
			"byteLength":336,
			"byteOffset":32580384,
			"target":34962
		},
		{
			"buffer":0,
			"byteLength":180,
			"byteOffset":32580720,
			"target":34963
		},
		{
			"buffer":0,
			"byteLength":3168,
			"byteOffset":32580900,
			"target":34962
		},
		{
			"buffer":0,
			"byteLength":3168,
			"byteOffset":32584068,
			"target":34962
		},
		{
			"buffer":0,
			"byteLength":2112,
			"byteOffset":32587236,
			"target":34962
		},
		{
			"buffer":0,
			"byteLength":4224,
			"byteOffset":32589348,
			"target":34962
		},
		{
			"buffer":0,
			"byteLength":2880,
			"byteOffset":32593572,
			"target":34963
		},
		{
			"buffer":0,
			"byteLength":1440,
			"byteOffset":32596452,
			"target":34962
		},
		{
			"buffer":0,
			"byteLength":1440,
			"byteOffset":32597892,
			"target":34962
		},
		{
			"buffer":0,
			"byteLength":960,
			"byteOffset":32599332,
			"target":34962
		},
		{
			"buffer":0,
			"byteLength":1920,
			"byteOffset":32600292,
			"target":34962
		},
		{
			"buffer":0,
			"byteLength":1152,
			"byteOffset":32602212,
			"target":34963
		},
		{
			"buffer":0,
			"byteLength":864,
			"byteOffset":32603364,
			"target":34962
		},
		{
			"buffer":0,
			"byteLength":864,
			"byteOffset":32604228,
			"target":34962
		},
		{
			"buffer":0,
			"byteLength":576,
			"byteOffset":32605092,
			"target":34962
		},
		{
			"buffer":0,
			"byteLength":1152,
			"byteOffset":32605668,
			"target":34962
		},
		{
			"buffer":0,
			"byteLength":576,
			"byteOffset":32606820,
			"target":34963
		},
		{
			"buffer":0,
			"byteLength":60480,
			"byteOffset":32607396,
			"target":34962
		},
		{
			"buffer":0,
			"byteLength":60480,
			"byteOffset":32667876,
			"target":34962
		},
		{
			"buffer":0,
			"byteLength":40320,
			"byteOffset":32728356,
			"target":34962
		},
		{
			"buffer":0,
			"byteLength":80640,
			"byteOffset":32768676,
			"target":34962
		},
		{
			"buffer":0,
			"byteLength":59520,
			"byteOffset":32849316,
			"target":34963
		},
		{
			"buffer":0,
			"byteLength":252,
			"byteOffset":32908836,
			"target":34962
		},
		{
			"buffer":0,
			"byteLength":252,
			"byteOffset":32909088,
			"target":34962
		},
		{
			"buffer":0,
			"byteLength":168,
			"byteOffset":32909340,
			"target":34962
		},
		{
			"buffer":0,
			"byteLength":336,
			"byteOffset":32909508,
			"target":34962
		},
		{
			"buffer":0,
			"byteLength":60480,
			"byteOffset":32909844,
			"target":34962
		},
		{
			"buffer":0,
			"byteLength":60480,
			"byteOffset":32970324,
			"target":34962
		},
		{
			"buffer":0,
			"byteLength":40320,
			"byteOffset":33030804,
			"target":34962
		},
		{
			"buffer":0,
			"byteLength":80640,
			"byteOffset":33071124,
			"target":34962
		},
		{
			"buffer":0,
			"byteLength":252,
			"byteOffset":33151764,
			"target":34962
		},
		{
			"buffer":0,
			"byteLength":252,
			"byteOffset":33152016,
			"target":34962
		},
		{
			"buffer":0,
			"byteLength":168,
			"byteOffset":33152268,
			"target":34962
		},
		{
			"buffer":0,
			"byteLength":336,
			"byteOffset":33152436,
			"target":34962
		},
		{
			"buffer":0,
			"byteLength":62400,
			"byteOffset":33152772,
			"target":34962
		},
		{
			"buffer":0,
			"byteLength":62400,
			"byteOffset":33215172,
			"target":34962
		},
		{
			"buffer":0,
			"byteLength":41600,
			"byteOffset":33277572,
			"target":34962
		},
		{
			"buffer":0,
			"byteLength":83200,
			"byteOffset":33319172,
			"target":34962
		},
		{
			"buffer":0,
			"byteLength":61440,
			"byteOffset":33402372,
			"target":34963
		},
		{
			"buffer":0,
			"byteLength":960,
			"byteOffset":33463812,
			"target":34962
		},
		{
			"buffer":0,
			"byteLength":960,
			"byteOffset":33464772,
			"target":34962
		},
		{
			"buffer":0,
			"byteLength":640,
			"byteOffset":33465732,
			"target":34962
		},
		{
			"buffer":0,
			"byteLength":1280,
			"byteOffset":33466372,
			"target":34962
		},
		{
			"buffer":0,
			"byteLength":240,
			"byteOffset":33467652,
			"target":34963
		},
		{
			"buffer":0,
			"byteLength":1212,
			"byteOffset":33467892,
			"target":34962
		},
		{
			"buffer":0,
			"byteLength":1212,
			"byteOffset":33469104,
			"target":34962
		},
		{
			"buffer":0,
			"byteLength":808,
			"byteOffset":33470316,
			"target":34962
		},
		{
			"buffer":0,
			"byteLength":1616,
			"byteOffset":33471124,
			"target":34962
		},
		{
			"buffer":0,
			"byteLength":420,
			"byteOffset":33472740,
			"target":34963
		},
		{
			"buffer":0,
			"byteLength":62400,
			"byteOffset":33473160,
			"target":34962
		},
		{
			"buffer":0,
			"byteLength":62400,
			"byteOffset":33535560,
			"target":34962
		},
		{
			"buffer":0,
			"byteLength":41600,
			"byteOffset":33597960,
			"target":34962
		},
		{
			"buffer":0,
			"byteLength":83200,
			"byteOffset":33639560,
			"target":34962
		},
		{
			"buffer":0,
			"byteLength":3744,
			"byteOffset":33722760,
			"target":34962
		},
		{
			"buffer":0,
			"byteLength":3744,
			"byteOffset":33726504,
			"target":34962
		},
		{
			"buffer":0,
			"byteLength":2496,
			"byteOffset":33730248,
			"target":34962
		},
		{
			"buffer":0,
			"byteLength":4992,
			"byteOffset":33732744,
			"target":34962
		},
		{
			"buffer":0,
			"byteLength":3456,
			"byteOffset":33737736,
			"target":34963
		},
		{
			"buffer":0,
			"byteLength":737028,
			"byteOffset":33741192,
			"target":34962
		},
		{
			"buffer":0,
			"byteLength":737028,
			"byteOffset":34478220,
			"target":34962
		},
		{
			"buffer":0,
			"byteLength":491352,
			"byteOffset":35215248,
			"target":34962
		},
		{
			"buffer":0,
			"byteLength":982704,
			"byteOffset":35706600,
			"target":34962
		},
		{
			"buffer":0,
			"byteLength":428544,
			"byteOffset":36689304,
			"target":34963
		}
	],
	"buffers":[
		{
			"byteLength":37117848,
			"uri":"old-heater-20472844bc9015bbbab66fa733cf2c54.bin"
		}
	]
}
