{
	"asset":{
		"generator":"Khronos glTF Blender I/O v4.5.48",
		"version":"2.0"
	},
	"extensionsUsed":[
		"KHR_materials_clearcoat",
		"KHR_materials_specular",
		"KHR_materials_ior",
		"KHR_texture_transform"
	],
	"extensionsRequired":[
		"KHR_texture_transform"
	],
	"scene":0,
	"scenes":[
		{
			"extras":{
				"qremesher":{},
				"photographer":{},
				"lightmixer":{},
				"uiListCollec":[
					{
						"idx":0,
						"val":-0.07952709496021271,
						"color":[
							0.0,
							0.0,
							0.0,
							1.0
						]
					},
					{
						"idx":1,
						"val":-0.07952709496021271,
						"color":[
							0.0,
							0.0,
							0.0,
							1.0
						]
					},
					{
						"idx":2,
						"val":-0.07952709496021271,
						"color":[
							1.0,
							1.0,
							1.0,
							1.0
						]
					}
				],
				"uuid":"d8c30fff-c80e-43ac-b598-7950fde23b24",
				"assets reported":{}
			},
			"name":"Scene",
			"nodes":[
				0,
				1
			]
		}
	],
	"nodes":[
		{
			"extras":{
				"ant_landscape":{}
			},
			"mesh":0,
			"name":"Cube.026",
			"rotation":[
				0,
				0.7071068286895752,
				0,
				0.7071068286895752
			],
			"translation":[
				4.556608200073242,
				0.6995824575424194,
				0
			]
		},
		{
			"extras":{
				"ant_landscape":{}
			},
			"mesh":1,
			"name":"Plane",
			"scale":[
				8.458221435546875,
				8.458221435546875,
				8.458221435546875
			],
			"translation":[
				5.13671350479126,
				0.02725839614868164,
				-0.1101984977722168
			]
		}
	],
	"materials":[
		{
			"doubleSided":true,
			"extras":{
				"pmc_matprops":{},
				"luxcore":{
					"node_tree":{}
				},
				"blenderkit":{}
			},
			"name":"IE_Plywood_01",
			"normalTexture":{
				"index":0,
				"texCoord":1
			},
			"pbrMetallicRoughness":{
				"baseColorTexture":{
					"index":1,
					"texCoord":1
				},
				"metallicFactor":0,
				"metallicRoughnessTexture":{
					"index":2,
					"texCoord":1
				}
			}
		},
		{
			"doubleSided":true,
			"extensions":{
				"KHR_materials_clearcoat":{
					"clearcoatFactor":0.25
				}
			},
			"extras":{
				"luxcore":{
					"node_tree":{}
				},
				"blenderkit":{}
			},
			"name":"IE_Brushed_Steel_02",
			"normalTexture":{
				"extensions":{
					"KHR_texture_transform":{
						"offset":[
							0,
							-3.7899999618530273
						],
						"scale":[
							4.789999961853027,
							4.789999961853027
						]
					}
				},
				"index":3,
				"scale":0.18000000715255737,
				"texCoord":1
			},
			"pbrMetallicRoughness":{
				"baseColorTexture":{
					"extensions":{
						"KHR_texture_transform":{
							"offset":[
								0,
								-3.7899999618530273
							],
							"scale":[
								4.789999961853027,
								4.789999961853027
							]
						}
					},
					"index":4,
					"texCoord":1
				},
				"metallicRoughnessTexture":{
					"extensions":{
						"KHR_texture_transform":{
							"offset":[
								0,
								-3.7899999618530273
							],
							"scale":[
								4.789999961853027,
								4.789999961853027
							]
						}
					},
					"index":5,
					"texCoord":1
				}
			}
		},
		{
			"doubleSided":true,
			"extensions":{
				"KHR_materials_specular":{
					"specularFactor":0
				},
				"KHR_materials_ior":{
					"ior":1.4500000476837158
				}
			},
			"extras":{
				"luxcore":{
					"node_tree":{}
				},
				"blenderkit":{}
			},
			"name":"IE_Chrome_Distorted"
		},
		{
			"doubleSided":true,
			"extras":{
				"blenderkit":{
					"category":34,
					"name":"Greasy wood",
					"name_changed":1,
					"name_old":"Greasy wood",
					"description":"It is a large piece of old wood plank. Micro surface texture can be found as it is not a laminated wood and not a veneer. It is a natural solid wood.",
					"pbr":1,
					"uv":1,
					"tags":"Wall,Dirt,Dirty,Brown,Floor,Architecture,Wood,Wooden,Bark",
					"thumbnail_generator_type":1,
					"thumbnail":"//greasy_wood.png",
					"has_thumbnail":1,
					"thumbnail_generating_state":"",
					"is_generating_thumbnail":0,
					"texture_resolution_max":2048,
					"texture_resolution_min":2048,
					"texture_count":4,
					"node_count":21,
					"total_megapixels":16,
					"is_procedural":0,
					"shaders":"principled, ",
					"upload_state":"Starting upload. Please don't close Blender until upload finishes",
					"report":"",
					"asset_base_id":"e65d9c43-9172-450d-bca1-4619e8a1acdc",
					"id":"64d3d7a8-4546-4190-b8d6-1f2957dcc193",
					"uploading":0
				},
				"asset_data":{
					"thumbnail":"thumbnail_705086c5-582b-43f6-8827-7c4704246d6b.png.512x512_q85_crop-%2C.png",
					"thumbnail_small":"thumbnail_705086c5-582b-43f6-8827-7c4704246d6b.png.256x256_q85_crop-%2C.png",
					"downloaded":0,
					"texture_size_meters":1.0,
					"url":"https://www.blenderkit.com/api/v1/assets/64d3d7a8-4546-4190-b8d6-1f2957dcc193/",
					"id":"64d3d7a8-4546-4190-b8d6-1f2957dcc193",
					"assetBaseId":"e65d9c43-9172-450d-bca1-4619e8a1acdc",
					"versionNumber":1,
					"author":{
						"id":"309047",
						"firstName":"Textures",
						"lastName":"Can",
						"gravatarHash":"a48a09f22dc7c5d9de5d0e0068b6da63",
						"avatar128":"/avatar-redirect/18738664-0638-43c3-b26a-133bbd5f06ca/128/",
						"aboutMe":"We  will publish 100% free high quality 3D assets cco (PUBLIC Domain license) If you want to support  work and help to keep making new assets \r\nVisit web\r\nhttps://www.texturecan.com/\r\nThanks stay connected with us contact at \r\ntexturescan@gmail.com",
						"aboutMeUrl":"https://www.texturecan.com/"
					},
					"name":"Greasy wood",
					"displayName":"Greasy wood",
					"description":"It is a large piece of old wood plank. Micro surface texture can be found as it is not a laminated wood and not a veneer. It is a natural solid wood.",
					"assetType":"material",
					"category":"wood",
					"adult":0,
					"isFree":1,
					"tags":[
						"Wall",
						"Dirt",
						"Dirty",
						"Brown",
						"Floor",
						"Architecture",
						"Wood",
						"Wooden",
						"Bark"
					],
					"license":"royalty_free",
					"sourceAppName":"blender",
					"sourceAppVersion":"3.1.2",
					"addonVersion":"3.1.4",
					"created":"2022-06-19T13:50:49.793381+02:00",
					"verificationStatus":"validated",
					"isPrivate":0,
					"files":[
						{
							"fileType":"blend",
							"downloadUrl":"https://www.blenderkit.com/api/v1/downloads/118571/",
							"fileThumbnail":null,
							"fileThumbnailLarge":null
						},
						{
							"fileType":"resolution_0_5K",
							"downloadUrl":"https://www.blenderkit.com/api/v1/downloads/120270/",
							"fileThumbnail":null,
							"fileThumbnailLarge":null
						},
						{
							"fileType":"resolution_1K",
							"downloadUrl":"https://www.blenderkit.com/api/v1/downloads/120269/",
							"fileThumbnail":null,
							"fileThumbnailLarge":null,
							"url":"https://public.blenderkit.com/public-assets/assets/64d3d7a845464190b8d61f2957dcc193/files/resolution_1K_de555ea6-3fba-4c93-b873-d5a417658329.blend",
							"file_name":"resolution_1K_de555ea6-3fba-4c93-b873-d5a417658329.blend"
						},
						{
							"fileType":"thumbnail",
							"downloadUrl":"https://www.blenderkit.com/api/v1/downloads/118570/",
							"fileThumbnail":"https://public.blenderkit.com/thumbnails/assets/64d3d7a845464190b8d61f2957dcc193/files/thumbnail_705086c5-582b-43f6-8827-7c4704246d6b.png.96x96_q85_crop-%2C.png",
							"fileThumbnailLarge":"https://public.blenderkit.com/thumbnails/assets/64d3d7a845464190b8d61f2957dcc193/files/thumbnail_705086c5-582b-43f6-8827-7c4704246d6b.png.1024x1024_q85_crop-%2C.png"
						}
					],
					"filesSize":1323245,
					"thumbnailSmallUrl":"https://public.blenderkit.com/thumbnails/assets/64d3d7a845464190b8d61f2957dcc193/files/thumbnail_705086c5-582b-43f6-8827-7c4704246d6b.png.256x256_q85_crop-%2C.png",
					"thumbnailMiddleUrl":"https://public.blenderkit.com/thumbnails/assets/64d3d7a845464190b8d61f2957dcc193/files/thumbnail_705086c5-582b-43f6-8827-7c4704246d6b.png.512x512_q85_crop-%2C.png",
					"thumbnailLargeUrl":"https://public.blenderkit.com/thumbnails/assets/64d3d7a845464190b8d61f2957dcc193/files/thumbnail_705086c5-582b-43f6-8827-7c4704246d6b.png.1024x1024_q85_crop-%2C.png",
					"thumbnailXlargeUrl":"https://public.blenderkit.com/thumbnails/assets/64d3d7a845464190b8d61f2957dcc193/files/thumbnail_705086c5-582b-43f6-8827-7c4704246d6b.png.1024x1024_q85_crop-%2C.png",
					"thumbnailSmallUrlNonsquared":"https://public.blenderkit.com/thumbnails/assets/64d3d7a845464190b8d61f2957dcc193/files/thumbnail_705086c5-582b-43f6-8827-7c4704246d6b.png.256x256_q85.png",
					"thumbnailMiddleUrlNonsquared":"https://public.blenderkit.com/thumbnails/assets/64d3d7a845464190b8d61f2957dcc193/files/thumbnail_705086c5-582b-43f6-8827-7c4704246d6b.png.512x512_q85.png",
					"thumbnailLargeUrlNonsquared":"https://public.blenderkit.com/thumbnails/assets/64d3d7a845464190b8d61f2957dcc193/files/thumbnail_705086c5-582b-43f6-8827-7c4704246d6b.png.1024x1024_q85.png",
					"thumbnailXlargeUrlNonsquared":"https://public.blenderkit.com/thumbnails/assets/64d3d7a845464190b8d61f2957dcc193/files/thumbnail_705086c5-582b-43f6-8827-7c4704246d6b.png.2048x2048_q85.png",
					"showMarketingLabels":1,
					"score":160.0,
					"ratingsMedian":{
						"competition-2022-votes":null,
						"complexity":null,
						"virtualPriceAdmin":null,
						"virtualPrice":null,
						"quality":8.0,
						"workingHours":2.0,
						"complexityAdmin":null
					},
					"ratingsAverage":{
						"competition-2022-votes":null,
						"complexity":null,
						"virtualPriceAdmin":null,
						"virtualPrice":null,
						"quality":8.0,
						"workingHours":2.0,
						"complexityAdmin":null
					},
					"ratingsCount":{
						"competition-2022-votes":0,
						"complexity":0,
						"virtualPriceAdmin":0,
						"virtualPrice":0,
						"quality":2,
						"workingHours":1,
						"complexityAdmin":0
					},
					"ratingsSum":{
						"competition-2022-votes":null,
						"complexity":null,
						"virtualPriceAdmin":null,
						"virtualPrice":null,
						"quality":16.0,
						"workingHours":2.0,
						"complexityAdmin":null
					},
					"dictParameters":{
						"textureResolutionMax":2048,
						"textureSizeMeters":1.0,
						"procedural":0,
						"materialStyle":"realistic",
						"purePbr":1,
						"engine":"cycles",
						"shaders":[
							"principled"
						],
						"animated":0,
						"pbrType":"metallic",
						"uv":1,
						"textureResolutionMin":2048,
						"nodeCount":21,
						"textureCount":4,
						"megapixels":16
					},
					"canDownload":1,
					"canDownloadError":1,
					"available_resolutions":[
						512,
						1024
					],
					"max_resolution":1024,
					"tooltip_data":{
						"aname":"Greasy wood",
						"author_text":"by Textures Can",
						"quality":"8"
					},
					"resolution":"resolution_1K"
				}
			},
			"name":"Greasy wood",
			"normalTexture":{
				"index":6
			},
			"pbrMetallicRoughness":{
				"baseColorTexture":{
					"index":7
				},
				"metallicFactor":0,
				"metallicRoughnessTexture":{
					"index":8
				}
			}
		}
	],
	"meshes":[
		{
			"name":"Cube.019",
			"primitives":[
				{
					"attributes":{
						"POSITION":0,
						"NORMAL":1,
						"TEXCOORD_0":2,
						"TEXCOORD_1":3,
						"TEXCOORD_2":4
					},
					"indices":5,
					"material":0
				},
				{
					"attributes":{
						"POSITION":6,
						"NORMAL":7,
						"TEXCOORD_0":8,
						"TEXCOORD_1":9,
						"TEXCOORD_2":10
					},
					"indices":11,
					"material":1
				},
				{
					"attributes":{
						"POSITION":12,
						"NORMAL":13,
						"TEXCOORD_0":14,
						"TEXCOORD_1":15,
						"TEXCOORD_2":16
					},
					"indices":17,
					"material":2
				},
				{
					"attributes":{
						"POSITION":18,
						"NORMAL":19,
						"TEXCOORD_0":20,
						"TEXCOORD_1":21,
						"TEXCOORD_2":22
					},
					"indices":23,
					"material":3
				}
			]
		},
		{
			"name":"Plane",
			"primitives":[
				{
					"attributes":{
						"POSITION":24,
						"NORMAL":25,
						"TEXCOORD_0":26,
						"TANGENT":27
					},
					"indices":28
				}
			]
		}
	],
	"textures":[
		{
			"sampler":0,
			"source":0
		},
		{
			"sampler":0,
			"source":0
		},
		{
			"sampler":0,
			"source":1
		},
		{
			"sampler":0,
			"source":2
		},
		{
			"sampler":0,
			"source":3
		},
		{
			"sampler":0,
			"source":4
		},
		{
			"sampler":0,
			"source":5
		},
		{
			"sampler":0,
			"source":6
		},
		{
			"sampler":0,
			"source":7
		}
	],
	"images":[
		{
			"mimeType":"image/jpeg",
			"name":"Wood003_2K_Color.jpg.001",
			"uri":"../../textures/Wood003_2K_Color.jpg"
		},
		{
			"mimeType":"image/jpeg",
			"name":"Wood003_2K_Roughness.jpg.001",
			"uri":"../../textures/Wood003_2K_Roughness.jpg"
		},
		{
			"mimeType":"image/jpeg",
			"name":"Metal010_2K_Normal.jpg.004",
			"uri":"../../textures/Metal010_2K_Normal.jpg"
		},
		{
			"mimeType":"image/jpeg",
			"name":"Metal010_2K_Color.jpg.004",
			"uri":"../../textures/Metal010_2K_Color.jpg"
		},
		{
			"mimeType":"image/jpeg",
			"name":"Metal010_2K_Roughness.jpg.004",
			"uri":"../../textures/Metal010_2K_Roughness.jpg"
		},
		{
			"mimeType":"image/jpeg",
			"name":"Greasy_Wood_Normal.jpg",
			"uri":"../../textures/Greasy_Wood_Normal.jpg"
		},
		{
			"mimeType":"image/jpeg",
			"name":"Greasy_Wood_Base_Color.jpg",
			"uri":"../../textures/Greasy_Wood_Base_Color.jpg"
		},
		{
			"mimeType":"image/jpeg",
			"name":"Greasy_Wood_Roughness.jpg",
			"uri":"../../textures/Greasy_Wood_Roughness.jpg"
		}
	],
	"accessors":[
		{
			"bufferView":0,
			"componentType":5126,
			"count":10345,
			"max":[
				0.22845955193042755,
				-0.009378442540764809,
				0.944257378578186
			],
			"min":[
				-0.4039609730243683,
				-0.6790019273757935,
				-0.9398191571235657
			],
			"type":"VEC3"
		},
		{
			"bufferView":1,
			"componentType":5126,
			"count":10345,
			"type":"VEC3"
		},
		{
			"bufferView":2,
			"componentType":5126,
			"count":10345,
			"type":"VEC2"
		},
		{
			"bufferView":3,
			"componentType":5126,
			"count":10345,
			"type":"VEC2"
		},
		{
			"bufferView":4,
			"componentType":5126,
			"count":10345,
			"type":"VEC2"
		},
		{
			"bufferView":5,
			"componentType":5123,
			"count":20328,
			"type":"SCALAR"
		},
		{
			"bufferView":6,
			"componentType":5126,
			"count":74811,
			"max":[
				0.15833231806755066,
				-0.023787090554833412,
				0.8953511714935303
			],
			"min":[
				-0.33381327986717224,
				-0.527586042881012,
				-0.8937479257583618
			],
			"type":"VEC3"
		},
		{
			"bufferView":7,
			"componentType":5126,
			"count":74811,
			"type":"VEC3"
		},
		{
			"bufferView":8,
			"componentType":5126,
			"count":74811,
			"type":"VEC2"
		},
		{
			"bufferView":9,
			"componentType":5126,
			"count":74811,
			"type":"VEC2"
		},
		{
			"bufferView":10,
			"componentType":5126,
			"count":74811,
			"type":"VEC2"
		},
		{
			"bufferView":11,
			"componentType":5125,
			"count":208656,
			"type":"SCALAR"
		},
		{
			"bufferView":12,
			"componentType":5126,
			"count":7728,
			"max":[
				0.11483639478683472,
				-0.16892564296722412,
				0.7830591201782227
			],
			"min":[
				-0.2903173565864563,
				-0.1765078455209732,
				-0.7401426434516907
			],
			"type":"VEC3"
		},
		{
			"bufferView":13,
			"componentType":5126,
			"count":7728,
			"type":"VEC3"
		},
		{
			"bufferView":14,
			"componentType":5126,
			"count":7728,
			"type":"VEC2"
		},
		{
			"bufferView":15,
			"componentType":5126,
			"count":7728,
			"type":"VEC2"
		},
		{
			"bufferView":16,
			"componentType":5126,
			"count":7728,
			"type":"VEC2"
		},
		{
			"bufferView":17,
			"componentType":5123,
			"count":35184,
			"type":"SCALAR"
		},
		{
			"bufferView":18,
			"componentType":5126,
			"count":1320,
			"max":[
				0.3204842805862427,
				0.009787562303245068,
				1.0998581647872925
			],
			"min":[
				-0.46675464510917664,
				-0.009834143333137035,
				-1.0998547077178955
			],
			"type":"VEC3"
		},
		{
			"bufferView":19,
			"componentType":5126,
			"count":1320,
			"type":"VEC3"
		},
		{
			"bufferView":20,
			"componentType":5126,
			"count":1320,
			"type":"VEC2"
		},
		{
			"bufferView":21,
			"componentType":5126,
			"count":1320,
			"type":"VEC2"
		},
		{
			"bufferView":22,
			"componentType":5126,
			"count":1320,
			"type":"VEC2"
		},
		{
			"bufferView":23,
			"componentType":5123,
			"count":6480,
			"type":"SCALAR"
		},
		{
			"bufferView":24,
			"componentType":5126,
			"count":4,
			"max":[
				1,
				0,
				1
			],
			"min":[
				-1,
				0,
				-1
			],
			"type":"VEC3"
		},
		{
			"bufferView":25,
			"componentType":5126,
			"count":4,
			"type":"VEC3"
		},
		{
			"bufferView":26,
			"componentType":5126,
			"count":4,
			"type":"VEC2"
		},
		{
			"bufferView":27,
			"componentType":5126,
			"count":4,
			"type":"VEC4"
		},
		{
			"bufferView":28,
			"componentType":5123,
			"count":6,
			"type":"SCALAR"
		}
	],
	"bufferViews":[
		{
			"buffer":0,
			"byteLength":124140,
			"byteOffset":0,
			"target":34962
		},
		{
			"buffer":0,
			"byteLength":124140,
			"byteOffset":124140,
			"target":34962
		},
		{
			"buffer":0,
			"byteLength":82760,
			"byteOffset":248280,
			"target":34962
		},
		{
			"buffer":0,
			"byteLength":82760,
			"byteOffset":331040,
			"target":34962
		},
		{
			"buffer":0,
			"byteLength":82760,
			"byteOffset":413800,
			"target":34962
		},
		{
			"buffer":0,
			"byteLength":40656,
			"byteOffset":496560,
			"target":34963
		},
		{
			"buffer":0,
			"byteLength":897732,
			"byteOffset":537216,
			"target":34962
		},
		{
			"buffer":0,
			"byteLength":897732,
			"byteOffset":1434948,
			"target":34962
		},
		{
			"buffer":0,
			"byteLength":598488,
			"byteOffset":2332680,
			"target":34962
		},
		{
			"buffer":0,
			"byteLength":598488,
			"byteOffset":2931168,
			"target":34962
		},
		{
			"buffer":0,
			"byteLength":598488,
			"byteOffset":3529656,
			"target":34962
		},
		{
			"buffer":0,
			"byteLength":834624,
			"byteOffset":4128144,
			"target":34963
		},
		{
			"buffer":0,
			"byteLength":92736,
			"byteOffset":4962768,
			"target":34962
		},
		{
			"buffer":0,
			"byteLength":92736,
			"byteOffset":5055504,
			"target":34962
		},
		{
			"buffer":0,
			"byteLength":61824,
			"byteOffset":5148240,
			"target":34962
		},
		{
			"buffer":0,
			"byteLength":61824,
			"byteOffset":5210064,
			"target":34962
		},
		{
			"buffer":0,
			"byteLength":61824,
			"byteOffset":5271888,
			"target":34962
		},
		{
			"buffer":0,
			"byteLength":70368,
			"byteOffset":5333712,
			"target":34963
		},
		{
			"buffer":0,
			"byteLength":15840,
			"byteOffset":5404080,
			"target":34962
		},
		{
			"buffer":0,
			"byteLength":15840,
			"byteOffset":5419920,
			"target":34962
		},
		{
			"buffer":0,
			"byteLength":10560,
			"byteOffset":5435760,
			"target":34962
		},
		{
			"buffer":0,
			"byteLength":10560,
			"byteOffset":5446320,
			"target":34962
		},
		{
			"buffer":0,
			"byteLength":10560,
			"byteOffset":5456880,
			"target":34962
		},
		{
			"buffer":0,
			"byteLength":12960,
			"byteOffset":5467440,
			"target":34963
		},
		{
			"buffer":0,
			"byteLength":48,
			"byteOffset":5480400,
			"target":34962
		},
		{
			"buffer":0,
			"byteLength":48,
			"byteOffset":5480448,
			"target":34962
		},
		{
			"buffer":0,
			"byteLength":32,
			"byteOffset":5480496,
			"target":34962
		},
		{
			"buffer":0,
			"byteLength":64,
			"byteOffset":5480528,
			"target":34962
		},
		{
			"buffer":0,
			"byteLength":12,
			"byteOffset":5480592,
			"target":34963
		}
	],
	"samplers":[
		{
			"magFilter":9729,
			"minFilter":9987
		}
	],
	"buffers":[
		{
			"byteLength":5480604,
			"uri":"working-table-873ff7e1824c3f89b6c90549e9678b8a.bin"
		}
	]
}
